:SAMPLES-PER-SECOND 25
:FULLY-SPECIFIED
:DEGREES
74
root  10.9659 47.1702 -54.2832 27.5714 -7.79524 19.3083
RightUpLeg  -40.0812 -24.4149 -16.3431
RightLeg  29.2922 -9.33476 -5.83038
RightFoot  27.5507 -4.02852 11.9499
RightToes  2.84633e-005 7.89722e-005 -0.000426369
Spine  6.04812 -9.4228 10.4492
Spine1  11.5339 -21.3448 12.8709
HEad  21.5775 17.6605 -20.1636
LeftShoulder1  -3.88251e-019 0 -3.92111e-022
LeftArm  -49.2376 -33.7506 -33.5715
LeftForeArm  54.0812 -21.6015 -0.161536
LeftHand  -0.878793 -0.472815 17.4859
RightShoulder  7.45443e-017 -2.42657e-020 1.96277e-018
RightArm  16.6836 25.9844 53.4137
RightForeArm  29.1133 24.0431 3.61501
RightHand  -19.4921 22.0373 -72.0192
LeftUpLeg  -83.4879 -8.09625 2.96989
LeftLeg  128.773 28.9993 -29.6462
LeftFoot  -36.2445 -2.99676 -14.4975
LeftToes  3.91355e-005 3.11907e-005 -4.10385e-006
75
root  11.3907 47.6551 -53.6914 28.8831 -8.21064 17.8182
RightUpLeg  -45.6052 -26.5172 -13.1434
RightLeg  35.7053 -10.0655 -7.95801
RightFoot  23.1199 -2.58729 8.84406
RightToes  2.84633e-005 7.89722e-005 -0.000426369
Spine  6.14744 -9.60799 11.7395
Spine1  11.2437 -21.7087 16.1727
HEad  17.5733 17.996 -23.4025
LeftShoulder1  -3.88251e-019 0 -3.92111e-022
LeftArm  -43.7434 -28.4216 -33.6544
LeftForeArm  47.9446 -17.7407 3.23553
LeftHand  -0.851063 -0.1076 18.006
RightShoulder  7.45443e-017 -2.42657e-020 1.96277e-018
RightArm  15.6906 28.9959 50.6895
RightForeArm  30.1323 23.3785 3.57756
RightHand  -19.7613 22.7619 -71.3369
LeftUpLeg  -82.2802 -8.57801 0.0381573
LeftLeg  129.735 27.2755 -27.5103
LeftFoot  -37.0166 -3.44675 -16.0179
LeftToes  3.91355e-005 3.11907e-005 -4.10385e-006
76
root  11.7992 48.2739 -53.1982 29.7072 -9.22533 16.0378
RightUpLeg  -50.1911 -28.7466 -9.27583
RightLeg  39.9291 -13.0025 -11.6848
RightFoot  18.5996 -1.27245 5.24188
RightToes  2.84633e-005 7.89722e-005 -0.000426369
Spine  6.82244 -9.35107 12.6222
Spine1  12.3178 -21.2674 18.2206
HEad  12.8544 17.3745 -25.641
LeftShoulder1  -3.88251e-019 0 -3.92111e-022
LeftArm  -41.0625 -20.9413 -34.0135
LeftForeArm  43.5017 -16.9961 3.49979
LeftHand  -0.902458 -0.478923 17.9075
RightShoulder  7.45443e-017 -2.42657e-020 1.96277e-018
RightArm  15.6926 32.0225 48.2306
RightForeArm  29.5247 22.3818 4.04917
RightHand  -19.8631 23.0573 -71.0435
LeftUpLeg  -80.5156 -8.81586 -3.07319
LeftLeg  130.491 23.9896 -24.2724
LeftFoot  -37.437 -3.49491 -15.9711
LeftToes  3.91355e-005 3.11907e-005 -4.10385e-006
77
root  12.2375 49.075 -52.7802 30.7674 -11.2982 14.9265
RightUpLeg  -52.4768 -31.4685 -5.63711
RightLeg  37.6443 -15.8159 -12.974
RightFoot  15.5201 -1.83933 8.11275
RightToes  2.84633e-005 7.89722e-005 -0.000426369
Spine  7.5828 -8.68436 13.0161
Spine1  13.7509 -20.2481 18.9735
HEad  8.75258 16.6458 -26.9914
LeftShoulder1  -3.88251e-019 0 -3.92111e-022
LeftArm  -42.21 -12.7311 -35.8494
LeftForeArm  40.0018 -18.6269 1.49977
LeftHand  -0.896786 -0.791034 16.9123
RightShoulder  7.45443e-017 -2.42657e-020 1.96277e-018
RightArm  12.0864 35.2151 46.2222
RightForeArm  31.8905 20.4308 5.50283
RightHand  -20.2451 23.1724 -71.8717
LeftUpLeg  -80.1694 -9.07189 -7.1389
LeftLeg  129.21 19.6776 -21.4143
LeftFoot  -36.7271 -3.63617 -17.0255
LeftToes  3.91355e-005 3.11907e-005 -4.10385e-006
78
root  12.6693 49.8137 -52.4111 32.2397 -14.776 13.8051
RightUpLeg  -54.5235 -29.8258 -4.85139
RightLeg  35.9755 -15.5974 -12.0917
RightFoot  12.9524 -1.25884 6.25255
RightToes  2.84633e-005 7.89722e-005 -0.000426369
Spine  8.27423 -7.49921 12.7088
Spine1  15.2425 -18.0746 18.6101
HEad  5.07117 15.9559 -28.7446
LeftShoulder1  -3.88251e-019 0 -3.92111e-022
LeftArm  -47.4347 -4.57696 -40.6288
LeftForeArm  38.762 -22.2867 -1.96783
LeftHand  -1.08863 -1.44311 18.5663
RightShoulder  7.45443e-017 -2.42657e-020 1.96277e-018
RightArm  6.48928 36.7909 44.4607
RightForeArm  35.2594 18.9717 6.60067
RightHand  -20.8586 23.5693 -72.7703
LeftUpLeg  -79.6829 -8.43095 -10.709
LeftLeg  126.927 17.665 -20.9817
LeftFoot  -36.0734 -3.81 -18.2356
LeftToes  3.91355e-005 3.11907e-005 -4.10385e-006
79
root  13.1811 50.4572 -52.1167 33.5765 -19.1665 12.4522
RightUpLeg  -56.9611 -28.0071 -4.29351
RightLeg  35.4972 -14.7343 -11.2811
RightFoot  11.29 -1.03891 5.58851
RightToes  2.84633e-005 7.89722e-005 -0.000426369
Spine  9.16761 -6.23287 11.8656
Spine1  17.2636 -15.7113 17.0439
HEad  1.81526 15.6744 -29.8358
LeftShoulder1  -3.88251e-019 0 -3.92111e-022
LeftArm  -50.0606 3.04542 -47.1109
LeftForeArm  34.0785 -26.8897 -4.04969
LeftHand  -1.17172 -2.4051 17.5882
RightShoulder  7.45443e-017 -2.42657e-020 1.96277e-018
RightArm  1.39531 37.5341 44.4886
RightForeArm  38.9719 18.2245 6.73737
RightHand  -21.2099 23.7081 -73.4343
LeftUpLeg  -79.1915 -7.91617 -13.9427
LeftLeg  125.503 14.4847 -18.4569
LeftFoot  -36.1923 -3.52785 -16.9063
LeftToes  3.91355e-005 3.11907e-005 -4.10385e-006
80
root  13.7901 50.9169 -51.8241 34.5127 -23.3028 10.4854
RightUpLeg  -59.085 -26.1384 -3.71642
RightLeg  36.9312 -13.9329 -11.2535
RightFoot  10.0835 -0.880863 5.02322
RightToes  2.84633e-005 7.89722e-005 -0.000426369
Spine  10.3054 -5.07186 10.8915
Spine1  19.8001 -13.4037 15.2377
HEad  -1.1023 15.4388 -30.7745
LeftShoulder1  -3.88251e-019 0 -3.92111e-022
LeftArm  -50.2313 7.35654 -53.1366
LeftForeArm  28.1809 -29.2359 -4.79213
LeftHand  -1.12985 -2.87748 16.0282
RightShoulder  7.45443e-017 -2.42657e-020 1.96277e-018
RightArm  -1.91551 38.7077 44.0976
RightForeArm  39.9315 17.2581 7.26434
RightHand  -22.0354 24.2262 -74.5906
LeftUpLeg  -78.4108 -7.84785 -15.3526
LeftLeg  124.981 12.6084 -16.6039
LeftFoot  -36.1175 -3.40328 -16.3927
LeftToes  3.91355e-005 3.11907e-005 -4.10385e-006
81
root  14.4129 51.1628 -51.4539 35.2835 -27.0984 8.55535
RightUpLeg  -61.039 -24.4172 -3.44812
RightLeg  39.5355 -12.2988 -10.9467
RightFoot  8.12539 -0.573776 3.66914
RightToes  2.84633e-005 7.89722e-005 -0.000426369
Spine  11.3763 -4.2125 9.82107
Spine1  22.1777 -11.5654 13.2778
HEad  -3.78003 15.841 -32.1355
LeftShoulder1  -3.88251e-019 0 -3.92111e-022
LeftArm  -48.8761 8.25337 -58.1066
LeftForeArm  21.6782 -28.8762 -5.06738
LeftHand  -1.17541 -3.6789 15.2457
RightShoulder  7.45443e-017 -2.42657e-020 1.96277e-018
RightArm  -3.13907 40.5827 43.4145
RightForeArm  39.3303 16.3315 7.89758
RightHand  -22.4675 24.6107 -74.9627
LeftUpLeg  -77.6388 -8.10152 -16.135
LeftLeg  125.247 11.0097 -14.5453
LeftFoot  -36.4836 -3.38255 -16.0684
LeftToes  3.91355e-005 3.11907e-005 -4.10385e-006
82
root  15.0336 51.1888 -51.0947 35.4987 -30.6815 6.63518
RightUpLeg  -62.8575 -23.6835 -2.43431
RightLeg  42.5891 -10.3555 -10.3351
RightFoot  5.76034 -0.582237 4.13559
RightToes  2.84633e-005 7.89722e-005 -0.000426369
Spine  12.2783 -3.48732 8.67847
Spine1  24.1797 -9.90554 11.1791
HEad  -5.18634 16.7978 -34.2219
LeftShoulder1  -3.88251e-019 0 -3.92111e-022
LeftArm  -47.0181 7.64337 -61.5674
LeftForeArm  13.4082 -28.183 -5.36618
LeftHand  -1.51281 -5.93417 15.7401
RightShoulder  7.45443e-017 -2.42657e-020 1.96277e-018
RightArm  -5.65847 41.292 43.5178
RightForeArm  40.609 15.5574 8.0484
RightHand  -22.8761 25.1097 -75.0512
LeftUpLeg  -76.4988 -6.64263 -18.0443
LeftLeg  126.248 7.86961 -10.3131
LeftFoot  -36.7721 -2.94128 -13.9639
LeftToes  3.91355e-005 3.11907e-005 -4.10385e-006
83
root  15.6343 51.1393 -50.7084 35.4996 -32.5463 5.55836
RightUpLeg  -64.3007 -24.7927 -0.911203
RightLeg  45.0228 -9.33005 -10.1736
RightFoot  3.52877 -0.622856 4.95722
RightToes  2.84633e-005 7.89722e-005 -0.000426369
Spine  12.8737 -3.1357 7.77833
Spine1  25.482 -9.01945 9.5808
HEad  -6.21625 17.0137 -35.6268
LeftShoulder1  -3.88251e-019 0 -3.92111e-022
LeftArm  -47.5472 7.51376 -66.1259
LeftForeArm  7.94041 -31.8508 -6.56318
LeftHand  -1.73386 -7.09403 16.3622
RightShoulder  7.45443e-017 -2.42657e-020 1.96277e-018
RightArm  -5.89117 41.6014 42.6258
RightForeArm  38.5685 15.6352 8.08965
RightHand  -22.7482 25.306 -74.3699
LeftUpLeg  -75.5657 -5.98955 -21.0496
LeftLeg  127.164 3.92435 -5.25724
LeftFoot  -36.8085 -2.24887 -10.9119
LeftToes  3.91355e-005 3.11907e-005 -4.10385e-006
84
root  16.2212 51.112 -50.3142 35.6434 -33.063 4.48813
RightUpLeg  -64.9798 -26.3214 0.769035
RightLeg  46.2271 -8.83932 -10.0734
RightFoot  1.46625 -0.596067 5.38238
RightToes  2.84633e-005 7.89722e-005 -0.000426369
Spine  13.3382 -2.92736 7.43267
Spine1  26.4389 -8.52958 9.13585
HEad  -7.44844 16.3296 -37.4713
LeftShoulder1  -3.88251e-019 0 -3.92111e-022
LeftArm  -47.3027 6.55929 -70.7594
LeftForeArm  5.8421 -36.7035 -8.02599
LeftHand  -1.936 -7.0617 18.2513
RightShoulder  7.45443e-017 -2.42657e-020 1.96277e-018
RightArm  -11.7591 42.3119 40.7548
RightForeArm  42.4129 13.0165 8.97434
RightHand  -22.8395 25.6873 -73.9071
LeftUpLeg  -74.8576 -6.29259 -23.8375
LeftLeg  127.372 1.55348 -2.35631
LeftFoot  -36.4061 -2.01093 -10.0119
LeftToes  3.91355e-005 3.11907e-005 -4.10385e-006
85
root  16.8031 51.2165 -49.9632 36.2786 -33.9996 2.19506
RightUpLeg  -64.3496 -26.4439 2.73587
RightLeg  45.2335 -9.13576 -10.0424
RightFoot  0.0296959 -0.649397 6.52177
RightToes  2.84633e-005 7.89722e-005 -0.000426369
Spine  13.8155 -2.10741 7.20771
Spine1  27.4244 -6.92385 8.85063
HEad  -8.25031 15.0882 -38.0002
LeftShoulder1  -3.88251e-019 0 -3.92111e-022
LeftArm  -44.7892 4.42624 -73.8114
LeftForeArm  7.8164 -40.3733 -9.02488
LeftHand  -2.05408 -7.18662 19.148
RightShoulder  7.45443e-017 -2.42657e-020 1.96277e-018
RightArm  -20.3461 42.4166 39.3235
RightForeArm  49.5988 9.07527 8.92464
RightHand  -21.8422 25.995 -70.8484
LeftUpLeg  -74.2649 -5.50019 -25.8861
LeftLeg  126.974 -1.29859 1.144
LeftFoot  -36.4557 -1.64711 -8.37538
LeftToes  3.91355e-005 3.11907e-005 -4.10385e-006
86
root  17.3369 51.3328 -49.5953 37.0548 -34.6729 -0.0916674
RightUpLeg  -64.0117 -27.2871 5.20388
RightLeg  44.4071 -8.73101 -9.35951
RightFoot  -0.506014 -0.891149 9.34004
RightToes  2.84633e-005 7.89722e-005 -0.000426369
Spine  14.0785 -1.31266 7.18244
Spine1  27.9728 -5.39538 8.91086
HEad  -8.90896 13.8383 -39.1296
LeftShoulder1  -3.88251e-019 0 -3.92111e-022
LeftArm  -41.5319 1.7954 -76.1513
LeftForeArm  11.4139 -42.1461 -9.38231
LeftHand  -2.48462 -7.84033 21.8911
RightShoulder  7.45443e-017 -2.42657e-020 1.96277e-018
RightArm  -23.4272 44.0442 39.1692
RightForeArm  51.7136 3.47797 5.11075
RightHand  -20.567 26.1826 -67.2443
LeftUpLeg  -73.8849 -4.56932 -26.7639
LeftLeg  126.359 -3.48239 3.92512
LeftFoot  -36.5572 -1.41015 -7.28664
LeftToes  3.91355e-005 3.11907e-005 -4.10385e-006
87
root  17.7926 51.4943 -49.2379 37.7815 -34.9258 -2.57319
RightUpLeg  -63.8951 -28.3494 7.48351
RightLeg  45.5691 -7.39354 -8.31933
RightFoot  0.760607 -1.23312 11.6566
RightToes  2.84633e-005 7.89722e-005 -0.000426369
Spine  14.171 -0.328309 7.22982
Spine1  28.2028 -3.39907 9.13176
HEad  -8.64425 12.6285 -39.0723
LeftShoulder1  -3.88251e-019 0 -3.92111e-022
LeftArm  -38.929 -1.11873 -78.3278
LeftForeArm  14.1088 -43.7765 -9.76968
LeftHand  -2.56872 -7.42691 23.2975
RightShoulder  7.45443e-017 -2.42657e-020 1.96277e-018
RightArm  -24.5231 45.1519 41.4815
RightForeArm  54.8603 -1.79416 -0.190942
RightHand  -19.048 25.163 -64.8776
LeftUpLeg  -72.9998 -3.7366 -26.3343
LeftLeg  125.968 -5.35717 6.36354
LeftFoot  -36.2744 -1.0464 -5.72557
LeftToes  3.91355e-005 3.11907e-005 -4.10385e-006
88
root  18.1611 51.764 -48.8713 37.9797 -35.0809 -4.63719
RightUpLeg  -64.2926 -30.0953 9.13888
RightLeg  49.4459 -6.17687 -8.06565
RightFoot  0.0656636 -1.24864 12.4787
RightToes  2.84633e-005 7.89722e-005 -0.000426369
Spine  14.1999 0.870867 7.25924
Spine1  28.3559 -0.848884 9.5416
HEad  -7.82883 10.757 -38.294
LeftShoulder1  -3.88251e-019 0 -3.92111e-022
LeftArm  -35.5054 -5.11039 -80.0354
LeftForeArm  15.0505 -42.6718 -9.32361
LeftHand  -2.65283 -7.06843 24.6893
RightShoulder  7.45443e-017 -2.42657e-020 1.96277e-018
RightArm  -26.3132 43.7361 42.6647
RightForeArm  57.2079 -1.04915 -2.72686
RightHand  -15.1173 22.7077 -57.4567
LeftUpLeg  -71.2853 -2.98967 -25.3932
LeftLeg  125.151 -6.86316 8.50003
LeftFoot  -36.4083 -0.789247 -4.5395
LeftToes  3.91355e-005 3.11907e-005 -4.10385e-006
